<?xml version="1.0" standalone="no"?>
<!DOCTYPE svg PUBLIC "-//W3C//DTD SVG 20010904//EN"
 "http://www.w3.org/TR/2001/REC-SVG-20010904/DTD/svg10.dtd">
<svg version="1.0" xmlns="http://www.w3.org/2000/svg"
 width="1024.000000pt" height="1024.000000pt" viewBox="0 0 1024.000000 1024.000000"
 preserveAspectRatio="xMidYMid meet">
<metadata>
Created by potrace 1.14, written by Peter Selinger 2001-2017
</metadata>
<g transform="translate(0.000000,1024.000000) scale(0.100000,-0.100000)"
fill="#000000" stroke="none">
<path d="M4908 9855 c-2 -2 -59 -6 -128 -9 -120 -6 -174 -10 -250 -20 -138
-18 -210 -28 -240 -36 -19 -5 -51 -12 -70 -15 -19 -3 -62 -12 -95 -20 -33 -9
-71 -18 -84 -21 -29 -6 -78 -31 -86 -43 -6 -11 54 -5 195 19 78 13 158 21 378
35 101 6 170 13 217 19 87 13 312 21 575 21 261 0 347 -3 480 -19 108 -13 155
-17 255 -21 60 -3 107 -3 104 -1 -15 16 -388 77 -554 91 -38 4 -92 9 -120 11
-55 5 -573 13 -577 9z"/>
<path d="M4861 9729 c-80 -10 -92 -15 -86 -32 4 -8 -2 -13 -17 -14 -13 0 -54
-3 -93 -7 -79 -7 -169 -13 -370 -21 -77 -3 -156 -8 -175 -10 -19 -3 -68 -9
-107 -15 -123 -17 -1008 -320 -1230 -421 -23 -10 -44 -19 -47 -19 -6 0 -118
-51 -231 -106 -251 -122 -514 -292 -720 -466 -93 -79 -319 -304 -348 -345 -12
-18 -30 -33 -41 -33 -34 0 -289 -269 -441 -465 -38 -49 -77 -99 -87 -109 -28
-31 -162 -234 -221 -336 -199 -344 -399 -810 -349 -810 21 0 52 56 194 341
214 433 342 649 478 804 63 73 252 256 257 251 3 -3 -18 -38 -47 -78 -177
-241 -266 -370 -331 -479 -85 -144 -165 -301 -174 -344 -7 -29 -6 -29 21 10
15 22 53 72 84 110 30 39 68 89 83 113 36 56 43 54 12 -5 -28 -52 -26 -65 7
-37 l22 19 -15 -25 c-52 -83 -146 -254 -204 -370 -73 -144 -148 -237 -183
-225 -14 4 -30 -20 -80 -119 -34 -69 -62 -127 -62 -130 0 -3 -11 -30 -25 -60
-14 -30 -25 -58 -25 -61 0 -4 -6 -21 -14 -38 -8 -18 -19 -50 -26 -72 -6 -22
-15 -49 -20 -60 -32 -77 -93 -325 -121 -495 -23 -134 -25 -146 -33 -230 -3
-30 -8 -75 -11 -100 -9 -69 -14 -149 -20 -335 -4 -93 -11 -172 -16 -173 -46
-17 -50 -190 -5 -225 8 -6 7 -10 -2 -14 -10 -4 -10 -10 3 -29 9 -14 13 -29 10
-34 -3 -6 -2 -10 3 -10 5 0 10 -35 11 -77 1 -43 4 -100 6 -128 2 -27 6 -93 10
-145 4 -52 8 -115 10 -140 2 -25 6 -85 10 -135 4 -49 8 -97 10 -105 2 -8 7
-35 10 -60 4 -25 18 -97 31 -160 14 -63 27 -124 30 -135 2 -11 22 -77 45 -146
46 -141 76 -202 89 -178 9 16 -20 177 -74 399 -21 89 -51 231 -71 338 -3 15
-7 38 -10 52 -17 81 -44 350 -35 350 4 0 12 -33 18 -73 6 -39 14 -85 17 -102
3 -16 17 -91 31 -165 23 -129 32 -173 38 -195 2 -5 6 -28 10 -50 4 -22 19 -87
33 -145 13 -58 27 -116 29 -130 6 -29 58 -220 74 -267 6 -18 13 -40 15 -50 19
-93 147 -412 237 -588 51 -102 65 -117 33 -35 -34 88 -19 67 55 -75 91 -176
197 -349 322 -530 61 -88 114 -162 117 -165 3 -3 35 -43 71 -90 76 -101 197
-251 240 -299 16 -18 30 -36 30 -39 0 -4 -25 13 -40 28 -3 3 -21 19 -39 35
l-35 30 22 -29 c57 -75 203 -236 327 -360 130 -130 203 -191 260 -214 29 -12
28 -11 -10 24 -22 20 -111 104 -198 187 -87 84 -164 155 -170 159 -6 4 -9 9
-6 12 9 9 178 -123 293 -229 76 -70 318 -255 451 -344 44 -30 116 -80 160
-112 72 -51 446 -245 603 -312 l63 -27 1966 0 1965 0 74 35 c41 19 118 49 172
66 53 18 114 43 134 56 21 12 40 23 42 23 7 0 161 96 261 163 217 145 488 358
709 557 107 96 450 449 508 524 13 16 38 44 55 62 18 19 41 51 52 71 10 21 52
84 93 140 40 56 98 141 128 189 30 48 65 103 78 122 13 19 34 55 48 81 14 25
35 62 46 81 39 65 185 364 228 465 175 412 303 877 355 1285 3 25 8 61 10 80
6 40 12 101 20 215 3 44 8 108 10 143 4 58 34 135 59 153 5 4 6 14 3 22 -3 8
-1 19 4 24 5 5 14 35 20 67 9 51 8 61 -10 92 -12 19 -21 39 -21 44 0 5 -12 21
-26 35 -27 27 -27 31 -9 140 3 17 7 44 10 60 14 90 20 204 20 410 -1 205 -5
297 -20 415 -3 19 -7 57 -10 84 -9 75 -61 353 -80 426 -10 36 -19 77 -21 91
-3 14 -25 93 -49 175 -68 227 -251 582 -480 929 -241 365 -472 631 -750 860
-82 68 -92 71 -40 13 167 -187 227 -257 304 -353 31 -38 58 -72 61 -75 42 -43
62 -71 45 -62 -24 12 -210 203 -350 357 -55 61 -137 148 -183 195 -85 87 -213
203 -177 160 16 -19 17 -22 4 -17 -14 5 -217 138 -554 364 -356 239 -860 464
-1350 603 -112 31 -393 93 -475 105 -25 3 -70 10 -100 15 -30 5 -82 11 -115
15 -33 3 -87 8 -120 11 -33 3 -80 8 -105 10 -99 8 -699 11 -759 3z"/>
<path d="M3515 9568 c-72 -19 -317 -100 -370 -123 -16 -7 -50 -20 -75 -30 -25
-9 -76 -30 -114 -48 -64 -29 -67 -32 -42 -38 35 -10 78 3 361 107 255 94 321
122 336 140 14 17 -6 15 -96 -8z"/>
<path d="M0 4138 c0 -196 4 -369 10 -399 6 -30 13 -70 16 -89 3 -19 8 -38 10
-41 2 -4 6 -24 10 -45 4 -31 44 -205 69 -304 37 -144 97 -350 170 -580 43
-136 152 -350 178 -350 20 0 -2 63 -108 305 -7 17 -30 77 -50 135 -21 58 -41
114 -46 125 -37 89 -142 428 -154 497 -24 132 -36 241 -42 350 -5 112 -3 128
11 134 9 3 14 9 12 13 -2 3 -7 31 -10 61 -4 30 -9 78 -13 105 -3 28 -7 64 -9
80 -7 78 -45 339 -50 344 -2 2 -4 -151 -4 -341z"/>
<path d="M544 2321 c15 -97 142 -365 293 -616 59 -98 136 -215 149 -226 15
-12 16 -11 10 11 -9 32 -93 204 -144 295 -22 39 -79 140 -126 225 -48 85 -110
200 -138 255 -46 91 -50 96 -44 56z"/>
<path d="M800 2079 c0 -39 143 -280 220 -369 25 -28 22 -21 -14 40 -25 41 -75
129 -111 195 -70 127 -95 162 -95 134z"/>
<path d="M2158 394 c9 -22 22 -46 27 -55 14 -21 96 -76 115 -76 8 0 55 -19
103 -43 48 -23 90 -40 93 -37 3 3 -67 54 -156 114 -88 59 -170 114 -181 122
-19 13 -19 13 -1 -25z"/>
<path d="M2485 283 c59 -55 254 -183 277 -183 13 0 -63 61 -145 116 -61 41
-157 89 -132 67z"/>
<path d="M2300 257 c0 -3 12 -12 26 -22 15 -9 23 -12 20 -6 -7 11 -46 35 -46
28z"/>
</g>
</svg>
